<?xml version="1.0" encoding="utf-8"?>
<!-- Generator: Adobe Illustrator 27.0.0, SVG Export Plug-In . SVG Version: 6.00 Build 0)  -->
<svg version="1.1" xmlns="http://www.w3.org/2000/svg" xmlns:xlink="http://www.w3.org/1999/xlink" x="0px" y="0px"
	 viewBox="0 0 100 100" style="enable-background:new 0 0 100 100;" xml:space="preserve">
<style type="text/css">
	.st0{display:none;}
	.st1{display:inline;fill:#C9ECFF;}
	.st2{fill:#FFFFFF;}
</style>
<g id="Layer_2" class="st0">
	<rect x="37.2" y="37.2" class="st1" width="27" height="26"/>
</g>
<g id="Layer_1">
	<g>
		<g>
			<g>
				<path class="st2" d="M59.4,93.1L59.2,92C78.5,87.9,92,72.5,92,54.7c0-10.9-5.4-21.7-14.1-28.4C71,21.1,56.7,15.8,47.7,21
					c-3.3,1.9-10.7,6.9-8.9,12.6c0.4,1.3,1.5,2.7,3.1,3.9c2.2,1.8,3.4,3.8,3.5,6.1c0.2,4.6-4.1,9.1-7.3,12.1
					c-0.4,0.4-0.8,0.7-1.2,1.1c-2.2,2-4.6,4.1-5.8,6.6c-0.5,0.9-0.5,1.7-0.2,2.5c1,2.1,5.1,3.4,8.2,4.3c1.1,0.3,2.2,0.7,3,1
					l-0.5,1.1c-0.7-0.3-1.8-0.6-2.9-0.9c-3.4-1-7.7-2.3-8.9-4.9c-0.5-1-0.4-2.2,0.2-3.4c1.3-2.6,3.8-4.9,6.1-6.9
					c0.4-0.4,0.8-0.7,1.2-1.1c4.8-4.4,7.1-8.1,6.9-11.2c-0.1-1.9-1.1-3.7-3.1-5.2c-1.8-1.4-3-2.9-3.5-4.5c-2-6.5,5.9-11.9,9.4-13.9
					c9.4-5.5,24.4,0,31.5,5.4c9,6.8,14.6,18,14.6,29.3C93.2,73.1,79.3,88.9,59.4,93.1z"/>
			</g>
			<g>
				<path class="st2" d="M48.2,93.6c-23-0.7-41-17.6-41-38.5c0-19,15.6-35.4,36.2-38.2l0.2,1.2c-20.1,2.7-35.2,18.6-35.2,37
					c0,20.3,17.5,36.7,39.8,37.4L48.2,93.6z"/>
			</g>
			<g>
				<path class="st2" d="M52.5,42.2c-2.8,0-5.1-2.1-5.1-4.6s2.3-4.6,5.1-4.6c2.8,0,5.1,2.1,5.1,4.6S55.3,42.2,52.5,42.2z M52.5,34
					c-2.2,0-3.9,1.6-3.9,3.5s1.8,3.5,3.9,3.5c2.2,0,3.9-1.6,3.9-3.5S54.6,34,52.5,34z"/>
			</g>
			<g>
				<path class="st2" d="M58,99.2c-0.4,0-1.1-0.1-2-0.6c-2.8-1.7-6.5-7.4-8.7-25.2l1.2-0.1c2.2,18,6,23,8.1,24.3
					c0,0,0.1,0.1,0.1,0.1c-2.9-4.3-2.4-11.8-2-17c0.1-1,0.1-2,0.2-2.8c0.1-3.1,0-6.4-0.1-9.5c-0.2-6-0.3-12.2,0.8-18
					c0.5-2.4,1.5-4.4,2.5-6.3c0.8-1.5,2-2.8,3.1-4.2c1.5-1.7,3-3.5,3.7-5.5c1.4-3.7-3.2-8.4-6.7-11.7l0.9-0.8
					c2.4,2.2,8.8,8.1,7,12.9c-0.8,2.1-2.4,4-3.9,5.8c-1.1,1.3-2.2,2.6-3,4c-1,1.7-2,3.7-2.4,5.9c-1.1,5.6-0.9,11.8-0.8,17.7
					c0.1,3.2,0.2,6.5,0.1,9.6c0,0.8-0.1,1.8-0.2,2.8c-0.4,5.6-0.9,14,2.9,17.4l0.8,0.7l-1,0.3C58.5,99.2,58.3,99.2,58,99.2z"/>
			</g>
			<g>
				<path class="st2" d="M48.5,75.1l-0.7-0.7c-5.7-5.9-4.9-11.3-3.9-14c1.3-3.5,4-6.1,5.8-6.3c0.7-0.1,1.1,0.2,1.3,0.4
					c1.5,2,1.2,5.2,0.6,9.9c-0.6,4.5-2.7,9.6-2.8,9.8L48.5,75.1z M50,55.2c-0.5,0-2.2,0.9-3.6,3.1c-1.5,2.2-4.2,7.9,1.7,14.5
					c0.6-1.7,1.9-5.4,2.4-8.6C51,60,51.3,56.9,50,55.2C50,55.2,50,55.2,50,55.2z"/>
			</g>
			<g>
				<path class="st2" d="M49.4,82.9l-0.8-0.1c-3.8-0.3-6.5-1.4-8-3.2c-1.4-1.8-1.1-3.7-1.1-3.7l0.1-0.5l0.6,0.1c8,1.1,9,6.5,9,6.7
					L49.4,82.9z M40.8,76.7c0,0.5,0.2,1.4,0.9,2.3c1.1,1.4,3.2,2.3,6.2,2.6C47.3,80.2,45.7,77.6,40.8,76.7z"/>
			</g>
			<g>
				<path class="st2" d="M47.1,73.5c0-0.3-0.6-6.3-0.1-10.8l1.2,0.1c-0.5,4.3,0.1,10.5,0.1,10.5L47.1,73.5z"/>
			</g>
			<g>
				<path class="st2" d="M47.7,81.9c-0.1,0-2.8-1-4.3-2.4l0.9-0.8c1.3,1.2,3.8,2.1,3.9,2.1L47.7,81.9z"/>
			</g>
		</g>
		<g>
			<g>
				<path class="st2" d="M16.7,19.8c-0.1,0.1-0.2,0.1-0.3,0c-0.1,0-0.1-0.1-0.2-0.2c-0.1-0.2-0.1-0.3,0-0.3c0.1-0.1,0.2-0.1,0.3-0.2
					c0.4-0.2,0.6-0.3,0.7-0.5c0.1-0.2,0.1-0.4,0.1-0.6c0-0.2-0.1-0.4-0.2-0.6c-1.2-2.3-1.8-3.5-3-5.9c-0.1-0.2-0.2-0.4-0.3-0.5
					c-0.1-0.2-0.3-0.2-0.5-0.3c-0.2,0-0.5,0-0.9,0.2c-0.1,0.1-0.2,0.1-0.3,0.1c-0.1,0-0.2,0-0.3-0.2c0-0.1-0.1-0.2,0-0.3
					c0-0.1,0.1-0.2,0.2-0.2c0.4-0.2,0.8-0.3,1.1-0.5c0.4-0.2,0.7-0.3,1.1-0.5C15,9,15.5,8.8,16.6,8.4c0.7-0.3,1.3-0.5,1.8-0.6
					c0.5-0.1,0.9-0.1,1.3-0.1c0.4,0,0.8,0.2,1.1,0.4c0.3,0.2,0.5,0.5,0.7,0.9c0.2,0.5,0.2,0.9,0.1,1.3c-0.1,0.4-0.4,0.8-0.7,1.1
					c-0.3,0.3-0.6,0.6-1,0.8c0,0,0,0,0,0c0.6-0.3,1.2-0.4,1.8-0.4c0.6,0,1.1,0.2,1.5,0.4c0.4,0.2,0.7,0.6,0.9,1
					c0.2,0.6,0.3,1.1,0.1,1.6c-0.2,0.5-0.4,0.9-0.8,1.3c-0.4,0.4-0.8,0.7-1.3,1.1c-0.5,0.3-1,0.6-1.5,0.8c-0.8,0.3-1.2,0.5-2,0.8
					c-0.3,0.1-0.6,0.3-1,0.4C17.3,19.5,17,19.6,16.7,19.8z M16.9,13.2c0.3-0.1,0.4-0.2,0.7-0.3c0.2-0.1,0.5-0.2,0.8-0.4
					c0.3-0.1,0.5-0.3,0.8-0.5c0.2-0.2,0.4-0.5,0.4-0.8c0.1-0.3,0-0.7-0.2-1.2c-0.2-0.5-0.6-0.9-1-1.1c-0.5-0.2-1.1-0.1-1.9,0.2
					c-0.5,0.2-0.8,0.3-1.3,0.6C15.9,11,16.2,11.8,16.9,13.2z M20.4,17.4c0.5-0.2,0.9-0.5,1.3-0.8c0.4-0.3,0.6-0.7,0.7-1.1
					c0.1-0.4,0.1-1-0.2-1.5c-0.1-0.3-0.4-0.6-0.8-0.8c-0.3-0.2-0.8-0.3-1.4-0.3c-0.6,0-1.3,0.2-2.1,0.5c-0.3,0.1-0.4,0.2-0.7,0.3
					c0.6,1.2,0.9,1.8,1.4,3c0.2,0.5,0.5,0.8,0.7,0.8C19.6,17.6,19.9,17.6,20.4,17.4z"/>
				<path class="st2" d="M25.7,16.1c-0.1,0-0.2,0-0.3,0c-0.1-0.1-0.1-0.1-0.2-0.2c-0.1-0.2,0-0.3,0-0.3c0.1,0,0.2-0.1,0.3-0.1
					c0.3-0.1,0.5-0.2,0.6-0.4c0.1-0.2,0.2-0.4,0.2-0.6c0-0.2,0.1-0.4,0.1-0.7c0.3-3,0.5-4.5,1.1-7.4c0.1-0.3,0-0.5-0.1-0.6
					c-0.1-0.1-0.3-0.2-0.5-0.2c-0.2,0-0.4,0-0.6,0c-0.2,0-0.3,0-0.4,0c-0.1,0-0.1-0.1-0.2-0.2c-0.1-0.2,0-0.3,0.1-0.4
					C26,5,26.2,4.9,26.4,4.8c0.5-0.2,1-0.2,1.4-0.3c0.4,0,0.8,0.1,1.1,0.2C29.3,5,29.6,5.3,30,5.7c2,2.3,3,3.5,4.8,5.9
					c0.1,0.2,0.3,0.3,0.4,0.5c0.1,0.2,0.3,0.3,0.5,0.4c0.2,0.1,0.4,0.1,0.7,0.1c0.1,0,0.2,0,0.3,0s0.2,0.1,0.2,0.3
					c0,0.1,0,0.2,0,0.3c0,0.1-0.1,0.1-0.2,0.2c-0.4,0.1-0.7,0.1-1,0.2c-0.3,0.1-0.6,0.1-0.9,0.2c-0.7,0.1-1.4,0.4-2.1,0.5
					c-0.1,0-0.2,0-0.3-0.1c-0.1-0.1-0.1-0.1-0.1-0.2c0-0.2,0-0.3,0.1-0.3c0.1,0,0.2-0.1,0.3-0.1c0.6-0.1,0.9-0.3,0.9-0.5
					c0-0.2-0.1-0.5-0.4-0.9c-0.4-0.5-0.6-0.7-1-1.2c-1.8,0.4-2.7,0.7-4.4,1.2c0,0.4-0.1,0.8-0.1,1c0,0.2,0,0.3,0,0.4
					c0,0.1,0,0.1,0,0.1c0,0.4,0,0.7,0.1,0.8c0.1,0.2,0.2,0.3,0.4,0.2c0.2,0,0.5-0.1,1-0.2c0.1,0,0.2-0.1,0.3-0.1
					c0.1,0,0.2,0.1,0.2,0.3c0,0.1,0,0.2,0,0.3c0,0.1-0.1,0.2-0.2,0.2c-0.4,0.1-0.7,0.2-1,0.2c-0.3,0.1-0.6,0.2-0.9,0.3
					c-0.2,0.1-0.4,0.1-0.6,0.2c-0.2,0.1-0.3,0.1-0.5,0.2C26.1,16,25.9,16,25.7,16.1z M27.6,11.2c1.5-0.4,2.3-0.7,3.8-1
					c-1.2-1.4-1.8-2.2-3-3.6c0,0,0,0-0.1,0C28,8.5,27.9,9.4,27.6,11.2z"/>
				<path class="st2" d="M36.9,13.2c-0.1,0-0.2,0-0.3-0.1c-0.1-0.1-0.1-0.1-0.1-0.2c0-0.2,0-0.3,0.1-0.3c0.1,0,0.2-0.1,0.3-0.1
					c0.4-0.1,0.6-0.2,0.8-0.3c0.1-0.2,0.2-0.3,0.2-0.5c0-0.2,0-0.4-0.1-0.6c-0.5-2.6-0.7-3.8-1.2-6.4c0-0.2-0.1-0.4-0.2-0.6
					c-0.1-0.2-0.2-0.3-0.4-0.4c-0.2-0.1-0.5-0.1-0.9,0c-0.1,0-0.2,0-0.3,0c-0.1,0-0.2-0.1-0.2-0.3c0-0.1,0-0.2,0-0.3
					c0-0.1,0.1-0.1,0.2-0.2c0.4-0.1,0.8-0.1,1.2-0.2c0.4-0.1,0.8-0.1,1.2-0.2c0.8-0.1,1.7-0.3,2.5-0.4c0.1,0,0.2,0,0.3,0.1
					C40,2.3,40,2.3,40,2.4c0,0.2,0,0.3-0.1,0.3c-0.1,0-0.2,0.1-0.3,0.1c-0.4,0.1-0.7,0.2-0.9,0.3c-0.2,0.2-0.2,0.3-0.2,0.5
					c0,0.2,0,0.4,0,0.6c0.4,2.7,0.7,4,1.1,6.7c0,0.1,0.1,0.3,0.1,0.4c0.1,0.2,0.2,0.3,0.4,0.4c0.2,0.1,0.5,0.1,0.9,0
					c0.6-0.1,1-0.1,1.6-0.2c0.4-0.1,0.7-0.2,0.9-0.3c0.2-0.1,0.4-0.3,0.5-0.6c0.1-0.3,0.2-0.7,0.3-1.2c0-0.1,0.1-0.2,0.2-0.2
					c0.1,0,0.2-0.1,0.4,0c0.1,0,0.2,0,0.3,0.1c0.1,0.1,0.2,0.1,0.2,0.3c-0.1,0.8-0.1,1.3-0.2,2.1c0,0.2-0.1,0.3-0.1,0.3
					c-0.1,0-0.2,0.1-0.3,0.1c-2.3,0.2-3.5,0.4-5.8,0.7c-0.4,0.1-0.7,0.1-1,0.2C37.6,13,37.3,13.1,36.9,13.2z"/>
				<path class="st2" d="M45.7,12c-0.1,0-0.2,0-0.3-0.1c-0.1-0.1-0.1-0.2-0.1-0.2c0-0.2,0-0.3,0.1-0.3c0.1,0,0.2,0,0.3-0.1
					c0.3,0,0.6-0.1,0.7-0.2s0.3-0.3,0.4-0.5c0.1-0.2,0.2-0.4,0.3-0.6c1.1-2.8,1.7-4.2,3-6.9c0.1-0.3,0.1-0.5,0.1-0.6
					c-0.1-0.1-0.2-0.2-0.4-0.3S49.4,2,49.1,2c-0.2,0-0.3-0.1-0.4-0.1c-0.1,0-0.1-0.1-0.1-0.3c0-0.2,0.1-0.3,0.2-0.3
					c0.2,0,0.3,0,0.6,0c0.6,0,1,0,1.4,0.1c0.4,0.1,0.7,0.2,1,0.5c0.3,0.2,0.5,0.6,0.8,1.1c1.3,2.7,1.9,4.1,3,6.8
					c0.1,0.2,0.2,0.4,0.2,0.6c0.1,0.2,0.2,0.4,0.4,0.5c0.2,0.1,0.4,0.2,0.6,0.2c0.1,0,0.2,0,0.3,0s0.1,0.1,0.1,0.3
					c0,0.1,0,0.2-0.1,0.2c-0.1,0.1-0.1,0.1-0.2,0.1c-0.4,0-0.7-0.1-1-0.1c-0.3,0-0.6,0-1,0c-0.7,0-1.4,0-2.2,0c-0.1,0-0.2,0-0.2-0.1
					c0-0.1-0.1-0.2-0.1-0.2c0-0.2,0.1-0.3,0.1-0.3c0.1,0,0.2,0,0.3,0c0.6,0,0.9-0.1,1-0.3c0.1-0.2,0-0.5-0.2-1
					c-0.2-0.5-0.4-0.8-0.6-1.4c-1.8,0-2.7,0-4.6,0.1c-0.2,0.4-0.3,0.7-0.3,0.9c-0.1,0.2-0.1,0.3-0.1,0.4c0,0.1,0,0.1,0,0.1
					c-0.1,0.4-0.2,0.7-0.2,0.8c0,0.2,0.1,0.3,0.3,0.3c0.2,0,0.5,0.1,1,0c0.1,0,0.2,0,0.3,0c0.1,0,0.1,0.1,0.1,0.3
					c0,0.1,0,0.2-0.1,0.2c-0.1,0.1-0.1,0.1-0.2,0.1c-0.4,0-0.7,0-1,0c-0.3,0-0.6,0-0.9,0c-0.2,0-0.4,0-0.6,0c-0.2,0-0.3,0-0.5,0.1
					C46.2,11.9,46,11.9,45.7,12z M48.9,7.7c1.6-0.1,2.4-0.1,3.9-0.1c-0.7-1.7-1.1-2.5-2-4.2c0,0,0,0-0.1,0C50,5.2,49.6,6,48.9,7.7z"
					/>
				<path class="st2" d="M57.3,11.8c-0.1,0-0.2,0-0.2-0.1c0-0.1-0.1-0.2-0.1-0.2c0-0.2,0.1-0.3,0.2-0.3c0.1,0,0.2,0,0.3,0
					c0.4,0,0.7,0,0.8-0.1c0.2-0.1,0.3-0.3,0.3-0.5c0.1-0.2,0.1-0.4,0.1-0.6c0.2-2.6,0.3-3.9,0.6-6.5c0-0.5,0-0.8-0.2-1
					c-0.2-0.2-0.5-0.3-1-0.4C57.8,2,57.7,2,57.6,2c-0.1,0-0.1-0.1-0.1-0.3c0-0.2,0.1-0.3,0.3-0.3c0.2,0,0.4,0,0.6,0
					c0.8,0,1.4,0.1,1.8,0.3C60.6,1.8,61,2,61.3,2.3c0.3,0.3,0.7,0.7,1,1.2c1.9,2.6,2.7,3.9,4.3,6.5c0,0,0,0,0.1,0
					c0.4-2.2,0.6-3.3,1-5.5c0-0.2,0.1-0.4,0-0.6c0-0.2-0.1-0.4-0.2-0.5c-0.1-0.2-0.4-0.3-0.8-0.3c-0.1,0-0.2,0-0.3-0.1
					c-0.1,0-0.1-0.2-0.1-0.3c0-0.1,0.1-0.2,0.1-0.2c0.1-0.1,0.2-0.1,0.3-0.1c0.3,0,0.5,0.1,0.7,0.1c0.2,0,0.4,0.1,0.5,0.1
					c0.2,0,0.4,0.1,0.7,0.1c0.3,0,0.5,0.1,0.7,0.1c0.2,0,0.4,0.1,0.5,0.1c0.2,0,0.4,0.1,0.7,0.1c0.1,0,0.2,0.1,0.3,0.2
					c0,0.1,0,0.2,0,0.3c0,0.2-0.1,0.3-0.2,0.3c-0.1,0-0.2,0-0.4,0c-0.4-0.1-0.7-0.1-0.9,0c-0.2,0.1-0.3,0.2-0.4,0.4
					c-0.1,0.2-0.1,0.4-0.2,0.6c-0.7,3.2-1,4.9-1.6,8.1c0,0.1-0.1,0.1-0.2,0.1c-0.1,0-0.2,0-0.3,0c-0.2,0-0.4-0.1-0.5-0.3
					c-2.1-3.7-3.2-5.5-5.9-9.1c0,0,0,0-0.1,0c-0.2,2.6-0.3,3.9-0.6,6.5c0,0.2,0,0.4,0,0.6c0,0.2,0.1,0.4,0.2,0.5
					c0.1,0.1,0.4,0.2,0.8,0.3c0.1,0,0.2,0,0.3,0.1c0.1,0,0.1,0.1,0.1,0.3c0,0.1,0,0.2-0.1,0.2c-0.1,0.1-0.1,0.1-0.3,0.1
					c-0.2,0-0.5-0.1-0.6-0.1c-0.2,0-0.3,0-0.5-0.1c-0.2,0-0.4,0-0.6-0.1c-0.2,0-0.4,0-0.6,0c-0.1,0-0.3,0-0.5,0
					C57.7,11.8,57.5,11.8,57.3,11.8z"/>
				<path class="st2" d="M74.7,15c-1-0.3-1.8-0.7-2.5-1.3c-0.7-0.6-1.2-1.4-1.5-2.3c-0.3-0.9-0.4-1.9-0.1-3c0.2-1.1,0.7-2,1.4-2.7
					c0.7-0.7,1.6-1.2,2.7-1.4c1.1-0.2,2.3-0.1,3.6,0.2c0.5,0.1,0.9,0.3,1.4,0.5c0.5,0.2,0.9,0.5,1.3,0.8c0.4,0.3,0.6,0.6,0.8,1
					c0.2,0.4,0.2,0.8,0,1.2c-0.2,0.4-0.5,0.8-0.9,1c-0.5,0.2-1,0.2-1.6,0.1c-0.4-0.1-0.6-0.3-0.7-0.5c-0.1-0.2-0.1-0.3-0.1-0.4
					c0,0,0.1-0.1,0.3-0.1c0.2,0,0.4-0.1,0.6-0.2c0.2-0.1,0.4-0.3,0.5-0.6c0.2-0.5,0.1-0.9-0.2-1.3c-0.3-0.4-0.8-0.7-1.5-0.9
					c-0.8-0.2-1.5-0.2-2.2,0c-0.7,0.2-1.3,0.6-1.9,1.2c-0.5,0.6-0.9,1.4-1.2,2.4c-0.2,0.8-0.2,1.7-0.1,2.4c0.2,0.8,0.5,1.4,1,2
					c0.5,0.6,1.1,1,1.9,1.2c0.6,0.2,1.2,0.2,1.7,0.1c0.5-0.1,1.1-0.3,1.6-0.7c0.2-0.1,0.4-0.1,0.6,0.1c0.1,0.1,0.1,0.2,0.2,0.3
					c0,0.1,0,0.2-0.1,0.3c-0.6,0.3-1.2,0.6-1.6,0.7c-0.5,0.1-1,0.2-1.4,0.1C75.9,15.3,75.4,15.2,74.7,15z"/>
				<path class="st2" d="M80.3,16.5c-0.1,0-0.2-0.1-0.2-0.2c0-0.1,0-0.2,0-0.3c0.1-0.2,0.2-0.3,0.2-0.2c0.1,0,0.2,0,0.3,0.1
					C81,16,81.3,16,81.5,16c0.2-0.1,0.3-0.2,0.5-0.3c0.1-0.2,0.2-0.3,0.3-0.5c1-2.4,1.5-3.6,2.5-6.1c0.1-0.2,0.1-0.4,0.2-0.6
					c0-0.2,0-0.4-0.1-0.6c-0.1-0.2-0.4-0.3-0.8-0.5c-0.1,0-0.2-0.1-0.3-0.1c-0.1-0.1-0.1-0.2,0-0.3c0-0.1,0.1-0.1,0.2-0.2
					c0.1-0.1,0.2-0.1,0.3,0c0.4,0.2,0.8,0.3,1.2,0.5s0.7,0.3,1.1,0.4c2.4,0.9,3.6,1.4,5.9,2.5c0.1,0.1,0.2,0.1,0.3,0.2
					c0.1,0.1,0.1,0.2,0,0.3c-0.4,0.8-0.6,1.2-1,2.1c-0.1,0.1-0.1,0.1-0.3,0.1c-0.1,0-0.3,0-0.4-0.1c-0.1-0.1-0.2-0.1-0.3-0.2
					c-0.1-0.1-0.1-0.2-0.1-0.3c0.1-0.5,0.2-0.9,0.2-1.2c0-0.3-0.1-0.6-0.2-0.8C90.3,10,90,9.8,89.6,9.6c-1-0.4-1.5-0.6-2.5-1
					c-0.7,1.5-1,2.3-1.7,3.8c1.3,0.5,1.9,0.8,3.2,1.4c0.1,0.1,0.1,0.1,0.1,0.2c0,0.1,0,0.2,0,0.2c0,0.1-0.1,0.1-0.2,0.2
					c-0.1,0-0.2,0-0.2,0c-1.3-0.6-1.9-0.8-3.2-1.3c-0.5,1.1-0.8,1.7-1.3,2.9c0,0.1-0.1,0.3-0.1,0.5c0,0.2,0,0.3,0.1,0.5
					c0.1,0.2,0.4,0.3,0.7,0.5c0.6,0.3,0.9,0.4,1.5,0.7c0.4,0.2,0.7,0.2,1,0.2c0.3,0,0.5-0.1,0.8-0.3c0.2-0.2,0.6-0.5,0.9-0.8
					c0.1-0.1,0.2-0.1,0.3-0.1c0.1,0,0.2,0.1,0.4,0.2c0.1,0.1,0.2,0.1,0.2,0.2c0.1,0.1,0.1,0.2,0,0.3c-0.5,0.7-0.8,1-1.3,1.7
					c-0.1,0.1-0.2,0.2-0.3,0.2s-0.2,0-0.3-0.1c-2.2-1-3.2-1.5-5.5-2.3c-0.3-0.1-0.7-0.3-1-0.4C81,16.7,80.6,16.6,80.3,16.5z"/>
			</g>
		</g>
	</g>
</g>
</svg>
